<?xml version="1.0" encoding="UTF-8"?>
<svg id="logosandtypes_com" data-name="logosandtypes com" xmlns="http://www.w3.org/2000/svg" viewBox="0 0 150 150">
  <defs>
    <style>
      .cls-1 {
        fill: #f4ea12;
      }

      .cls-2 {
        fill: none;
      }
    </style>
  </defs>
  <path class="cls-2" d="M0,0H150V150H0V0Z"/>
  <rect class="cls-1" x="13.96" y="13.86" width="123.48" height="123.48"/>
  <path d="M53.88,113.09c7.78-.2,15.57,.09,23.34-.12,6.15-.13,12.13-1.27,17.6-4.29,9.24-4.69,13.12-16.11,9.73-25.72-2.68-7.52-8.73-9.79-15.82-11.73,2.87-.96,5.74-2,8.14-3.95,6.13-4.86,7.13-13.38,4.84-20.58,9.99,3.38,14.22,13.77,11.91,23.69-1.21,5.25-4.84,8.68-9.55,11.01,7.37,3.13,12.1,7.2,12.9,15.59,1.24,10.92-4.99,21.31-15.36,25.03-3.4,1.34-6.95,2.17-10.6,2.24-8.49,.17-16.98,.23-25.53,.34-3.84-3.94-7.65-7.73-11.57-11.54l-.02,.03Z"/>
  <path d="M53.9,113.06c-3.65-3.8-7.61-7.7-11.36-11.28V32.23c10.74-.23,21.5-.09,32.24-.06,9.09,.18,19.66,2.38,24.99,10.5,.68,1.08,1.19,2.27,1.77,3.41-.06,.07-.13,.13-.19,.2-4.5-1.53-9.1-2.64-13.86-2.63-11.2-.03-22.36-.22-33.56-.01-.05,23.15,.09,46.3-.05,69.44l.02-.03Z"/>
</svg>